<svg width="624" height="629" viewBox="0 0 624 629" fill="none" xmlns="http://www.w3.org/2000/svg">
<circle cx="310.122" cy="308.122" r="290" transform="rotate(135 310.122 308.122)" fill="#C4C4C4"/>
<circle cx="500.334" cy="498.334" r="15" transform="rotate(135 500.334 498.334)" fill="#FFE999"/>
<circle cx="119.91" cy="117.91" r="15" transform="rotate(135 119.91 117.91)" fill="#FFE999"/>
<circle cx="119.91" cy="498.334" r="15" transform="rotate(135 119.91 498.334)" fill="#FFE999"/>
<circle cx="500.334" cy="117.91" r="15" transform="rotate(135 500.334 117.91)" fill="#FFE999"/>
<circle cx="310.122" cy="39.1219" r="15" fill="#FFE999"/>
<circle cx="310.122" cy="577.122" r="15" fill="#FFE999"/>
<circle cx="579.122" cy="308.122" r="15" fill="#FFE999"/>
<circle cx="41.1219" cy="308.122" r="15" fill="#FFE999"/>
<path d="M560.122 308.122C560.122 275.291 553.656 242.782 541.092 212.451C528.528 182.12 510.113 154.56 486.899 131.345L310.122 308.122H560.122Z" fill="#FE5656"/>
<path d="M486.899 484.899C510.113 461.684 528.528 434.124 541.092 403.793C553.656 373.461 560.122 340.952 560.122 308.122H310.122L486.899 484.899Z" fill="#45FF6E"/>
<path d="M310.122 558.122C342.952 558.122 375.461 551.655 405.793 539.092C436.124 526.528 463.684 508.113 486.899 484.899L310.122 308.122L310.122 558.122Z" fill="#458FFF"/>
<path d="M133.345 484.899C156.56 508.113 184.12 526.528 214.451 539.092C244.783 551.655 277.291 558.122 310.122 558.122L310.122 308.122L133.345 484.899Z" fill="#FF9345"/>
<path d="M60.1219 308.122C60.1219 340.952 66.5884 373.461 79.1521 403.793C91.7157 434.124 110.131 461.684 133.345 484.899L310.122 308.122L60.1219 308.122Z" fill="#FD298F"/>
<path d="M133.345 131.345C110.131 154.56 91.7157 182.12 79.1521 212.451C66.5884 242.782 60.1219 275.291 60.1219 308.122L310.122 308.122L133.345 131.345Z" fill="#FDE829"/>
<path d="M310.122 58.1219C277.291 58.1219 244.782 64.5884 214.451 77.152C184.12 89.7157 156.56 108.131 133.345 131.345L310.122 308.122V58.1219Z" fill="#858585"/>
<path d="M486.899 131.345C440.015 84.4611 376.426 58.1219 310.122 58.1219V308.122L486.899 131.345Z" fill="#34CEB2"/>
<mask id="path-18-inside-1" fill="white">
<path d="M549.793 295.561C546.911 240.564 525.202 188.232 488.308 147.344L438.382 192.392C464.938 221.824 480.565 259.493 482.639 299.081L549.793 295.561Z"/>
</mask>
<path d="M549.793 295.561C546.911 240.564 525.202 188.232 488.308 147.344L438.382 192.392C464.938 221.824 480.565 259.493 482.639 299.081L549.793 295.561Z" stroke="white" stroke-width="8" mask="url(#path-18-inside-1)"/>
<mask id="path-19-inside-2" fill="white">
<path d="M470.713 129.767C429.787 92.9166 377.431 71.2625 322.432 68.4378L318.983 135.595C358.572 137.628 396.258 153.215 425.717 179.741L470.713 129.767Z"/>
</mask>
<path d="M470.713 129.767C429.787 92.9166 377.431 71.2625 322.432 68.4378L318.983 135.595C358.572 137.628 396.258 153.215 425.717 179.741L470.713 129.767Z" stroke="white" stroke-width="8" mask="url(#path-19-inside-2)"/>
<mask id="path-20-inside-3" fill="white">
<path d="M297.561 68.4509C242.564 71.3331 190.232 93.0421 149.344 129.935L194.392 179.862C223.824 153.305 261.493 137.679 301.081 135.605L297.561 68.4509Z"/>
</mask>
<path d="M297.561 68.4509C242.564 71.3331 190.232 93.0421 149.344 129.935L194.392 179.862C223.824 153.305 261.493 137.679 301.081 135.605L297.561 68.4509Z" stroke="white" stroke-width="8" mask="url(#path-20-inside-3)"/>
<mask id="path-21-inside-4" fill="white">
<path d="M131.767 147.531C94.9166 188.457 73.2625 240.812 70.4378 295.812L137.595 299.261C139.628 259.672 155.215 221.986 181.741 192.527L131.767 147.531Z"/>
</mask>
<path d="M131.767 147.531C94.9166 188.457 73.2625 240.812 70.4378 295.812L137.595 299.261C139.628 259.672 155.215 221.986 181.741 192.527L131.767 147.531Z" stroke="white" stroke-width="8" mask="url(#path-21-inside-4)"/>
<g filter="url(#filter0_d)">
<mask id="path-22-inside-5" fill="white">
<path d="M70.4509 320.683C73.3331 375.679 95.0421 428.012 131.935 468.9L181.862 423.851C155.305 394.42 139.679 356.75 137.605 317.163L70.4509 320.683Z"/>
</mask>
<path d="M70.4509 320.683C73.3331 375.679 95.0421 428.012 131.935 468.9L181.862 423.851C155.305 394.42 139.679 356.75 137.605 317.163L70.4509 320.683Z" stroke="white" stroke-width="8" mask="url(#path-22-inside-5)"/>
</g>
<g filter="url(#filter1_d)">
<mask id="path-23-inside-6" fill="white">
<path d="M149.531 486.477C190.457 523.327 242.812 544.981 297.812 547.806L301.261 480.649C261.672 478.615 223.986 463.029 194.527 436.503L149.531 486.477Z"/>
</mask>
<path d="M149.531 486.477C190.457 523.327 242.812 544.981 297.812 547.806L301.261 480.649C261.672 478.615 223.986 463.029 194.527 436.503L149.531 486.477Z" stroke="white" stroke-width="8" mask="url(#path-23-inside-6)"/>
</g>
<g filter="url(#filter2_d)">
<mask id="path-24-inside-7" fill="white">
<path d="M322.683 547.793C377.679 544.911 430.012 523.202 470.9 486.308L425.851 436.382C396.42 462.938 358.75 478.565 319.163 480.639L322.683 547.793Z"/>
</mask>
<path d="M322.683 547.793C377.679 544.911 430.012 523.202 470.9 486.308L425.851 436.382C396.42 462.938 358.75 478.565 319.163 480.639L322.683 547.793Z" stroke="white" stroke-width="8" mask="url(#path-24-inside-7)"/>
</g>
<mask id="path-25-inside-8" fill="white">
<path d="M488.477 468.713C525.327 427.787 546.981 375.431 549.806 320.432L482.649 316.983C480.615 356.572 465.029 394.258 438.503 423.717L488.477 468.713Z"/>
</mask>
<path d="M488.477 468.713C525.327 427.787 546.981 375.431 549.806 320.432L482.649 316.983C480.615 356.572 465.029 394.258 438.503 423.717L488.477 468.713Z" stroke="white" stroke-width="8" mask="url(#path-25-inside-8)"/>
<path d="M310.122 208.122L353.423 283.122H266.821L310.122 208.122Z" fill="#D6D6D6"/>
<circle cx="310.122" cy="308.122" r="70" fill="#D6D6D6"/>
<g filter="url(#filter3_d)">
<circle cx="310.122" cy="308.122" r="60" fill="#C60662"/>
</g>
<defs>
<filter id="filter0_d" x="66.4509" y="314.163" width="119.411" height="159.737" filterUnits="userSpaceOnUse" color-interpolation-filters="sRGB">
<feFlood flood-opacity="0" result="BackgroundImageFix"/>
<feColorMatrix in="SourceAlpha" type="matrix" values="0 0 0 0 0 0 0 0 0 0 0 0 0 0 0 0 0 0 127 0"/>
<feOffset dy="1"/>
<feGaussianBlur stdDeviation="2"/>
<feColorMatrix type="matrix" values="0 0 0 0 0 0 0 0 0 0 0 0 0 0 0 0 0 0 0.25 0"/>
<feBlend mode="normal" in2="BackgroundImageFix" result="effect1_dropShadow"/>
<feBlend mode="normal" in="SourceGraphic" in2="effect1_dropShadow" result="shape"/>
</filter>
<filter id="filter1_d" x="145.531" y="433.503" width="159.731" height="119.303" filterUnits="userSpaceOnUse" color-interpolation-filters="sRGB">
<feFlood flood-opacity="0" result="BackgroundImageFix"/>
<feColorMatrix in="SourceAlpha" type="matrix" values="0 0 0 0 0 0 0 0 0 0 0 0 0 0 0 0 0 0 127 0"/>
<feOffset dy="1"/>
<feGaussianBlur stdDeviation="2"/>
<feColorMatrix type="matrix" values="0 0 0 0 0 0 0 0 0 0 0 0 0 0 0 0 0 0 0.25 0"/>
<feBlend mode="normal" in2="BackgroundImageFix" result="effect1_dropShadow"/>
<feBlend mode="normal" in="SourceGraphic" in2="effect1_dropShadow" result="shape"/>
</filter>
<filter id="filter2_d" x="315.163" y="433.382" width="159.737" height="119.411" filterUnits="userSpaceOnUse" color-interpolation-filters="sRGB">
<feFlood flood-opacity="0" result="BackgroundImageFix"/>
<feColorMatrix in="SourceAlpha" type="matrix" values="0 0 0 0 0 0 0 0 0 0 0 0 0 0 0 0 0 0 127 0"/>
<feOffset dy="1"/>
<feGaussianBlur stdDeviation="2"/>
<feColorMatrix type="matrix" values="0 0 0 0 0 0 0 0 0 0 0 0 0 0 0 0 0 0 0.25 0"/>
<feBlend mode="normal" in2="BackgroundImageFix" result="effect1_dropShadow"/>
<feBlend mode="normal" in="SourceGraphic" in2="effect1_dropShadow" result="shape"/>
</filter>
<filter id="filter3_d" x="245.122" y="243.122" width="132" height="132" filterUnits="userSpaceOnUse" color-interpolation-filters="sRGB">
<feFlood flood-opacity="0" result="BackgroundImageFix"/>
<feColorMatrix in="SourceAlpha" type="matrix" values="0 0 0 0 0 0 0 0 0 0 0 0 0 0 0 0 0 0 127 0"/>
<feMorphology radius="2" operator="dilate" in="SourceAlpha" result="effect1_dropShadow"/>
<feOffset dx="1" dy="1"/>
<feGaussianBlur stdDeviation="2"/>
<feColorMatrix type="matrix" values="0 0 0 0 0.3125 0 0 0 0 0.3125 0 0 0 0 0.3125 0 0 0 0.25 0"/>
<feBlend mode="normal" in2="BackgroundImageFix" result="effect1_dropShadow"/>
<feBlend mode="normal" in="SourceGraphic" in2="effect1_dropShadow" result="shape"/>
</filter>
</defs>
</svg>
